<?xml version="1.0" encoding="utf-8"?>
<!-- Generator: Adobe Illustrator 19.2.1, SVG Export Plug-In . SVG Version: 6.00 Build 0)  -->
<svg version="1.1" id="Capa_1" xmlns="http://www.w3.org/2000/svg" xmlns:xlink="http://www.w3.org/1999/xlink" x="0px" y="0px"
	 viewBox="0 0 592.5 226.8" style="enable-background:new 0 0 592.5 226.8;" xml:space="preserve">
<style type="text/css">
	.st0{fill:#B2B6BD;}
	.st1{fill:#E62B27;}
	.st2{fill:#73777A;}
	.st3{fill:#F3986A;}
	.st4{fill:#F9B020;}
	.st5{fill:#E73728;}
	.st6{fill:#F18723;}
	.st7{fill:#030405;}
	.st8{fill:#734F99;}
	.st9{fill:#040505;}
	.st10{fill:#744E99;}
	.st11{fill:#734E9B;}
	.st12{fill:#ED6F24;}
	.st13{fill:#D0CFD1;}
	.st14{fill:#F59D24;}
	.st15{fill:#744F9B;}
	.st16{fill:#868688;}
	.st17{fill:#B6B5BE;}
	.st18{fill:#DBDBDB;}
	.st19{fill:#EC6625;}
	.st20{fill:#E94E26;}
	.st21{fill:#DEDEDE;}
	.st22{fill:#8C1812;}
	.st23{fill:#FBCA13;}
	.st24{fill:#9F9E9F;}
	.st25{fill:#7A787D;}
	.st26{fill:#EC6624;}
	.st27{fill:#070708;}
	.st28{fill:#F0836A;}
	.st29{fill:#868686;}
	.st30{fill:#A8A8A8;}
	.st31{fill:#C5C5C4;}
	.st32{fill:#080809;}
	.st33{fill:#7D1A10;}
	.st34{fill:#C6C5C6;}
	.st35{fill:#181819;}
	.st36{fill:#9A999D;}
	.st37{fill:#EA5326;}
	.st38{fill:#C4C4C3;}
	.st39{fill:#C7C6C7;}
	.st40{fill:#535353;}
	.st41{fill:#0C0D0D;}
	.st42{fill:#020304;}
	.st43{fill:#272729;}
	.st44{fill:#9B5D27;}
	.st45{fill:#313031;}
	.st46{fill:#3B3A3A;}
	.st47{fill:#7D7D7E;}
	.st48{fill:#FDFDFD;}
	.st49{fill:#FFFFFF;}
	.st50{fill:#FEFEFE;}
	.st51{fill:#FBFBFB;}
	.st52{fill:#B0AFAF;}
</style>
<g>
	<path class="st0" d="M20.8,68.5c-0.4-3.2,1.7-5.4,6.5-6.7c6.4-1.8,12.9-3.6,19.3-5.4c1.2-0.3,2.3-0.8,3.5-1.2c4.9-1.7,5.7-3,4.9-8
		c-0.7-4.2-2.5-5.5-7.3-5.7c-6.4-0.2-12.1,2.3-17.8,4.8c-7.7,3.3-15.7,5.3-24,6.3c-4.5,0.5-6.6-1-6.2-5.4c0.8-10,0.4-20.1,2.1-30.1
		c1.1-6,3.2-7.4,9.4-6c11.4,2.8,21.8,8,32.4,13c13.4,6.3,25.7,14.4,37.4,23.5c5.1,4,10,8.1,13.9,13.4c0.3,1.8-1.2,2.3-2.2,3
		c-4,2.8-7.2,6.4-9.3,10.8c-0.9,1.8-1.8,3.6-4.3,3.4c-7.1-2-14.1-4.3-21.4-5.6c-10-1.8-20.1-2.6-30.2-2.3
		C25,70.4,22.7,70.3,20.8,68.5z"/>
	<path class="st1" d="M80,98.4c5.9,0.7,11.6,2.4,16.6,5.8c1.6,1.1,3.3,2.3,2.6,4.8c-1,2.2-2.9,3.6-4.8,4.5c-5.1,2.4-9.1,6.1-13,9.9
		c-1,0.9-1.9,2.1-3.5,1.5c-2.9-4.2-6.9-7.5-9.8-11.7c-2-2.9-5.1-4.7-7.3-7.4c-2.9-3.4-2.4-5.5,1.9-6.6C68.4,97.4,74.2,98.1,80,98.4z
		"/>
	<path class="st2" d="M79.8,77.5c1.2-0.1,1.6-0.9,2-1.9c2.5-5.8,6.5-10.4,12.1-13.5c0.4-0.2,0.6-0.7,0.9-1.1c2.1-0.1,2.9,1.7,4,3
		c6.7,7.9,12.9,16.3,18.1,25.3c1.2,2.1,2.7,4.4,0.4,6.8c-5.7-0.8-10.3-4.1-15.2-6.6c-6.4-3.4-12.7-6.8-19.3-9.6
		C81.6,79.4,79.9,79.4,79.8,77.5z"/>
	<path class="st3" d="M30.3,157.8c-3.4-6.1-7-12.2-10.2-18.4c-3.4-6.6-2.4-11.3,3.8-17.3c3.4-3.3,6.8-6.9,10.9-9.5
		c2,0.3,3.7,0.8,3.4,3.4c-0.1,0.5-0.2,1.2,0.3,1.4c3.9,1.4,2.5,4.8,3,7.5c0,1.2-0.4,2.2-0.9,3.3c-3.6,9.1-7.3,18.1-9.4,27.7
		C31.1,156.6,31,157.3,30.3,157.8z"/>
	<path class="st4" d="M179.6,84.4c4,3.1,7.1,7,9.7,11.3c-1.1,3.3-1.8,6.7-1.5,10.1c0.3,3.7,0.5,7.4,0,11.1c-0.5,3.2,1.7,6.2,0,9.7
		c1.8-1.2,1.5-3.9,4-3.5c0.7,1.8-0.4,3.2-1,4.8c-1.4,3.3-2.1,7.1-5.1,9.6c-1.8,1.2-2.3,3.6-4.2,4.7c-1.1,0.6-2.1,1.4-3.4,0.6
		c-1.2-0.8-1.5-2-1.3-3.3c0.9-7.9-0.6-15.7-0.7-23.6c0-2.4-0.3-4.7,0.6-7c0.8-2,0.5-4.2,0.1-6.3c-0.7-4.6-0.4-9.2-0.3-13.8
		C176.5,86.7,176.9,84.7,179.6,84.4z"/>
	<path class="st5" d="M80,98.4c-5.6,0.5-11.2-0.7-16.7,1c-1.3,0.4-3.2,0.3-3.6,2.2c-0.5,2,1.2,2.6,2.3,3.8
		c5.7,6.2,11.9,11.9,16.3,19.2c-2.6,4-4.6,8.5-9.1,10.9c-2.7-1.3-4.3-3.9-5.8-6.2c-3.5-5.3-9.7-8.2-12.2-14.3
		c-0.7-1.7-1.7-3.3-2-5.2c1-3.9,3.7-6.6,6.5-9.2C63.6,97.1,71.7,97,80,98.4z"/>
	<path class="st6" d="M157.7,132.2c4.9-10.4,6.3-21.6,7.3-32.9c0.1-1,0.2-2,0.3-3c0.1-1,0.4-2.1,1.7-2.1c1.1,0,1.3,1,1.4,1.9
		c0.2,1.6,0.4,3.2,0.5,4.8c0.4,8.7-0.6,17.4,1,26.1c-0.9,7.5-1.4,15-0.5,22.5c0.2,1.4,1,2.2,2,3c-1.4,4.4-5.3,4.7-8.9,5.5
		c-2.8,0.2-4.1-1.2-4.4-3.9c-0.3-2.3-0.9-4.7-0.4-7C158.5,142.1,158.3,137.1,157.7,132.2z"/>
	<path class="st7" d="M79.8,77.5c13,5.2,24.8,12.8,37.5,18.6c-1.9,0.7-3.6,0.4-5.4-0.4C86.6,84.1,60,76.9,32.4,72.9
		c-2.7-0.4-5.4-0.9-8.1-1.6c-1.6-0.4-3.2-0.9-3.6-2.8c2.5,1,5.2,0.7,7.8,0.7C46.1,68.9,63.2,71.5,79.8,77.5z"/>
	<path class="st8" d="M562.6,131.8c-3.2,0.9-4.7,0.1-5.8-2.5c-1.5-3.7-3.4-7.2-5.1-10.8c-0.7-1.5-1.7-2.8-3-3.8
		c-2.3-1.8-5.1-1.6-7.5-0.9c-2.1,0.6-0.9,3.1-1,4.7c-0.2,3.7,0,7.5,0,11.2c0,1.3,0,2.5-1.9,2.5c-2,0-1.7-1.4-1.8-2.6
		c0-12.1,0-24.2,0-36.3c0-1.7,0.5-2.5,2.3-2.4c4.4,0.1,8.7,0,13.1,0.1c3.6,0.1,6,2,7.4,5.3c2.6,6.5,0.8,12.7-5,16.1
		c-1.6,0.9-1.6,1.5-0.5,2.8C557.9,120.1,559.8,126.1,562.6,131.8z"/>
	<path class="st9" d="M232,112.6c-0.1,2.6,0.3,6.1,1.4,9.4c1.7,4.9,5.3,7.8,9.4,7.8c4-0.1,7.2-2.9,8.8-7.9c0.5-1.4,0-3.9,3-2.8
		c1.4,0.5,1.8,1.2,1.6,2.7c-0.9,6.2-5.9,12-11.1,12.7c-6.8,1-12.4-2.2-15-9c-3.3-8.5-3.5-17.3-0.8-26c1.2-3.7,3.3-6.9,6.8-9.1
		c8-5,18.8,0.2,19.9,9.6c0.2,1.8-1.2,1.7-2,2.1c-0.7,0.3-2,1-2.3-0.7c-0.1-0.7-0.5-1.4-0.7-2.1c-1.3-3.2-3.4-5.6-7-5.9
		c-4-0.4-7,1.4-9.1,4.7C232.2,102.2,232,106.9,232,112.6z"/>
	<path class="st10" d="M567.2,111.3c0-5.7,0.1-11.5-0.1-17.2c-0.1-2.7,0.9-3.5,3.4-3.2c2.2,0.2,4.5,0,6.7,0
		c7.1,0.1,10.3,2.1,12.7,8.7c3,8.4,2.7,16.8-0.6,25.2c-1.9,4.9-5.7,7.1-10.7,7.4c-3,0.2-6-0.1-9,0.1c-2,0.1-2.6-0.7-2.5-2.6
		C567.3,123.6,567.2,117.4,567.2,111.3z"/>
	<path class="st8" d="M530.7,111.9c0.3,4.5-0.6,8.8-2.6,12.9c-2.3,4.9-6.2,8-11.6,8.1c-5.5,0-9.4-3.3-11.6-8.1
		c-3.9-8.7-3.9-17.7,0-26.4c2.1-4.7,5.8-7.8,11.2-8c5.5-0.2,9.1,2.9,11.6,7.4C530.2,102,530.9,106.8,530.7,111.9z"/>
	<path class="st11" d="M414.8,109.7c0.3-4.8,1.1-10.4,5.1-15c5-5.8,12.8-5.9,18-0.4c7.1,7.6,7.4,26,0.6,33.9c-6,6.9-15.5,6-20.4-2
		C415.9,122.5,414.4,115.7,414.8,109.7z"/>
	<path class="st7" d="M318.4,130.9c-6.1,5.7-11.9,4.5-15-3.4c-2.6-6.6-2.4-13.5,0-20.1c2.7-7.3,8.7-8.7,15-3c0-4.3,0-8.2,0-12.2
		c0-1.4-0.8-3.4,2-3.4c2.7,0,1.8,2,1.8,3.2c0.1,12.9,0.1,25.7,0,38.6c0,1.1,1,2.8-1.4,3.1C318.3,134.2,319.2,131.9,318.4,130.9z"/>
	<path class="st12" d="M30.3,157.8c-0.2-6,2.5-11.3,4.4-16.7c1.6-4.5,2.6-9.3,5.4-13.4c2.3,2,2.4,5.9,5.9,6.8
		c-1.4,10.5-2.5,21-5.9,31.1c-0.5,1.4-0.7,3.4-2.2,3.7c-1.7,0.3-2.2-1.7-2.9-3C33.3,163.5,31.8,160.6,30.3,157.8z"/>
	<path class="st9" d="M289.5,118.8c-2.4,0-4.3,0.2-6.2,0c-3-0.4-3.8,1-3,3.6c0.4,1.3,0.8,2.6,1.4,3.8c1.2,2.4,3,3.9,5.9,3.9
		c2.8-0.1,4.5-1.8,5.2-4.1c0.7-2.2,2.1-2.9,3.9-2c1.9,1,0.5,2.5,0,3.8c-1.6,4-4.4,6.5-8.9,6.7c-4.7,0.1-7.9-2.1-9.7-6.2
		c-2.8-6.6-2.7-13.4-0.5-20c1.7-4.9,5.4-7.5,9.6-7.5c4.2,0,7.6,2.7,9.4,7.8c1.1,3.1,2.6,6.9,1.1,9.3
		C296.1,120.4,291.9,118.3,289.5,118.8z"/>
	<path class="st13" d="M154.1,186.2c0.6,0,1.3,0,1.9-0.1c3.2-0.5,4.7,0.7,4.2,4.1c-0.4,2.4,0.7,4.9-0.8,7.2
		c-0.7-0.7-0.8-1.9-2.4-0.7c-7.1,5.2-14.6,9.8-21,15.9c-1,1-2.3,1.4-3.7,1.4c-0.7-0.1-1.5-0.1-2.2-0.2c-2.9-1.1-6.4-1.2-8.3-4.2
		c1.4-1.8,3.4-2.9,5.3-4C136.4,199.8,144.3,191.7,154.1,186.2z"/>
	<path class="st14" d="M171.6,152.6c-2.3,0.5-2.9-0.6-3.3-2.7c-1.1-7.3,0.1-14.6,0-21.8c0-1.3,0.5-1.5,1.6-1.1
		c2.7,2.3,4.3,1,5.5-1.6c0-5.9,0.2-11.8-0.1-17.8c-0.1-3.5-0.2-7-0.3-10.6c-0.5-3-0.6-6,0.1-8.9c0-0.6,0-1.2,0-1.9
		c0.1-1.2-0.3-2.6,1-3.3c1.7-0.9,2.3,0.9,3.4,1.5c-1.4,1-2.3,2.3-2.2,4.1c0.3,4.9-0.6,9.9,0.6,14.9c0.4,1.9,0.6,4-0.4,5.9
		c-1.3,2.5-1,5-0.6,7.6c0.4,2.4,0.5,5,0.2,7.4c-0.2,1.8-0.8,3.3,0.9,4.7c0.9,0.7,0.6,1.5-0.1,2.3c-0.6,0.7-0.9,1.6-0.2,2.4
		c1.4,1.5,0.9,2.9,0.1,4.4c-0.7,1.5-1.3,3.5,0.6,4.2c1.5,0.6,2.9-1,3.9-2.2c1-1.2,1-3.2,3.1-3.3c0.5,0.7,0.3,1.5-0.1,2.1
		c-3,5.1-6.9,9.4-11.4,13.1C173.3,152.5,172.5,152.8,171.6,152.6z"/>
	<path class="st15" d="M473.1,131.8c-3.2,1-4.7,0-5.8-2.4c-1.7-3.9-3.8-7.6-5.8-11.3c-0.5-0.9-0.7-2.2-1.7-2.3
		c-1.4-0.1-1.4,1.5-1.9,2.4c-2.1,3.8-4.2,7.6-6.1,11.6c-1.1,2.3-2.6,3-5.4,2c3.3-6.1,6.5-12.2,9.8-18.1c1.2-2.1,1.3-3.7,0.1-5.9
		c-3-5.3-5.7-10.8-8.5-16.3c2.9-1.4,4.3-0.3,5.5,2.2c2,4.1,4.2,8.2,6.3,12.3c4.8-4.6,4.9-12.7,11.5-15.4c0.4,0.3,0.7,0.5,1.1,0.8
		c-2.7,5-5.2,10.1-8.1,14.9c-1.9,3.1-1.7,5.6,0.1,8.6C467.2,120.3,470,126,473.1,131.8z"/>
	<path class="st9" d="M373.1,117.8c0.1,4-0.4,7.9-2.5,11.5c-4.1,7.1-13.4,7.2-17.2,0c-3.9-7.4-3.7-15.2-0.3-22.7
		c1.7-3.7,4.9-6,9.2-5.8c4.3,0.2,7.1,2.6,8.9,6.4C372.7,110.5,373.2,114.1,373.1,117.8z"/>
	<path class="st9" d="M386.5,134.5c-4.9,0-8.2-2.5-9.4-7.4c-0.3-1-1.2-2.5,0.7-3.1c1.7-0.6,2.6-0.3,3.1,1.8c0.9,3.3,3.4,4.8,6.9,4.3
		c2.4-0.3,3.8-1.7,4.2-4c0.5-2.5-0.4-4.1-2.7-5.1c-2.7-1-5.4-1.9-8-3.2c-3.6-1.9-5.1-6.7-3.7-11.2c1.2-3.8,4.6-6,9-5.8
		c4.4,0.2,7.5,2.7,8.3,6.7c0.2,1,0.9,2.1-1,2.5c-1.4,0.3-2.3,0.6-2.8-1.2c-0.9-3.3-3.5-3.9-6.5-3.5c-1.9,0.3-3.1,1.4-3.4,3.4
		c-0.3,2,0.3,3.5,2.2,4.3c2.4,1,4.9,1.8,7.3,2.9c4.6,2.1,6.6,6.2,5.6,11C395.1,131.5,391.4,134.5,386.5,134.5z"/>
	<path class="st16" d="M96.4,169.8c4.9,2,9.9,4,14.8,6.1c0.8,0.4,1.6,0.4,2.5,0.6c1.5,3.3-1.6,4.3-3.3,5.2c-3.4,1.8-6.1,4.5-9.4,6.5
		c-1.9,1.1-3.4,2.8-5.2,4.2c-2.2,0.2-3.3-1.5-4.4-2.9c-2-2.6-4.3-5-5.4-8.2c-0.4-2.1,0.9-3.1,2.4-4.2
		C91.2,174.8,94.3,172.9,96.4,169.8z"/>
	<path class="st17" d="M132.2,213.3c4.2-0.3,5.8-4.4,8.9-6.4c6.1-3.9,11.8-8.4,17.7-12.7c0.9,1,0.3,2.2,0.5,3.2
		c-0.8,4.4-0.9,8.8-2.4,13.1c-2,6-7.1,8.5-13.4,6.5c-2.6-0.5-5.2-1.1-7.8-1.7C134.5,215.1,132.7,215.3,132.2,213.3z"/>
	<path class="st18" d="M154.1,186.2c-1.6,2.6-4.2,4.1-6.8,5.6c-3.4,1.9-6,4.6-9,7c-5.2,4.1-10.4,8.2-16.6,10.8
		c-3.9,0.2-6.7-1.8-9.3-4.4c-0.4-2,0.5-3.6,2.1-4.4c3.5-1.8,6.1-4.6,8.9-7.1c6.3,2.3,12-0.1,17.6-2.4c3.6-1.4,7-3.2,10.5-4.7
		C152.3,186.2,153.2,186.3,154.1,186.2z"/>
	<path class="st19" d="M157.7,132.2c3,4.3,1.7,9.1,1.1,13.6c-0.5,3.5,0.2,6.7,0.6,9.9c0.3,2.2,2.4,1,3.7,1.4c-1.4,3-4.3,2.6-6.7,2.8
		c-2.6,0.3-5.2,0.5-7.8,0.6c-1-0.2-2-0.3-2.9-0.6c-4.7-1.5-5.7-4.7-2.4-8.4C148.8,145.6,154,139.4,157.7,132.2z"/>
	<path class="st15" d="M477.4,111.5c0-5.9,0.1-11.7,0-17.6c-0.1-2.3,0.7-3,3-3c4.9,0.1,9.7,0.1,14.6,0c1.7,0,2.8,0.2,2.7,2.4
		c0,2.3-1.3,2.3-2.9,2.2c-3.6,0-7.2,0.1-10.9,0c-2-0.1-2.8,0.5-2.9,2.7c-0.4,10.6-0.4,10.6,10,10.6c0.9,0,1.7,0.1,2.6,0
		c1.6-0.1,1.8,0.9,1.8,2.2c0,1.4-0.5,2.1-1.9,2.1c-2.7,0-5.5,0.1-8.2,0c-3.1-0.2-4.5,0.7-4.2,4.2c0.3,4.1,0.1,8.2,0.1,12.3
		c0,1.2,0.3,2.6-1.7,2.7c-2.1,0-2-1.3-2-2.8C477.4,123.4,477.4,117.4,477.4,111.5z"/>
	<path class="st20" d="M49.8,109.6c2.3,5,4.6,9.8,9.4,13.4c4.1,3.1,6.8,8.1,10.1,12.2c0.5,2.1-0.9,3.5-1.8,5
		c-1.2,2.1-2.3,4.3-3.6,6.4c-0.5,0.9-0.8,2.5-2.6,2c-4.6-3.8-6.8-8.1-4.6-14.3c0.7-1.9,0.4-4.4-0.1-6.6c-1.3-5.4-2.8-7.1-6.2-6.7
		c-0.4,0-0.8,0.5-1.2,0.7c-3.3,2-4.2,1.3-4.8-4.1C45.5,114.6,46,111,49.8,109.6z"/>
	<path class="st21" d="M122.6,58c-4.5-5.3-7.9-11.4-12.7-16.5c-1.7-1.8-3.2-3.8-4.7-5.8c-1-1.4-0.5-2.4,1.2-2.4c3.4,0,6.7,0,10.1,0
		c1.2,0,2.1,0.8,2.7,1.8c3.3,6.5,6.2,13.3,10,19.5c0.2,0.3,0.1,0.7,0.1,1.1c-0.3,0.2-0.7,0.3-1.1,0.1C124,54.1,124,54,122.6,58z"/>
	<path class="st22" d="M61.8,148.5c2.5-4.4,5-8.8,7.6-13.2c3.4-3.2,5.2-7.7,9-10.7c2.6-2.3,5.3-4.4,7.7-6.8
		c3.8-3.9,9.5-4.8,13.1-8.8c0.4,1.3-0.5,2.1-1.4,2.8C81,126.5,68.1,144.3,56.3,163c-1.2-0.4-1-1.4-0.7-2.2c1.6-3.7,3.1-7.3,4.5-11.1
		C60.4,149.1,60.9,148.5,61.8,148.5z"/>
	<path class="st23" d="M191.5,123.2c-1.8,0.9-1.4,3.1-2.6,4.4c-0.5,0.5-0.9,1.4-1.7,1.1c-0.9-0.4-0.5-1.2-0.5-1.9
		c0-7.2,0.9-14.4-0.3-21.5c-0.2-1.4,0-2.7,0.7-4c0.6-1.1,0.8-2,0-3.1c-2.1-3.1,0.5-2.4,2.1-2.5c5,5.1,8.5,10.7,6.1,18.3
		C194.2,117.1,194.2,120.7,191.5,123.2z"/>
	<path class="st9" d="M343.9,90.8c0,2.2-0.1,4,0,5.9c0.1,2.3-1.1,5.3,3.2,4.9c1.2-0.1,1,1.2,1,2c0.1,1.2-0.4,2-1.7,1.9
		c-2.3-0.2-2.7,1-2.6,2.9c0.1,5.6,0,11.2,0.1,16.8c0,2.1,0.2,4,3.1,4.1c2.1,0.1,1.1,2.1,1.4,3.3c0.3,1.4-1,1.5-1.9,1.7
		c-3.5,0.6-6.2-1.9-6.3-6.1c-0.1-6.6-0.1-13.2-0.1-19.8c0-1.4,0.1-2.5-1.8-3c-2.1-0.5-1.5-3.5-0.6-3.6c3.8-0.4,2.3-3.1,2.3-4.8
		C340,94.2,340.5,92.1,343.9,90.8z"/>
	<path class="st24" d="M95.6,192.2c0-1.1,0.7-1.7,1.6-2.3c5-3.5,9.9-7.1,14.9-10.7c1-0.7,1.7-1.4,1.5-2.7c2,0.3,4,0.5,6,0.8
		c1.2,0.6,2.5,0,3.8,0.5c1.1,1.9-0.5,2.7-1.6,3.6c-3.1,2.5-6.5,4.6-9.8,6.8c-3.9,2.7-7.4,5.8-11.1,8.7
		C98.2,196.3,95.8,195.5,95.6,192.2z"/>
	<path class="st25" d="M96.4,169.8c0.9,2.4-1.3,3-2.4,4c-1.8,1.7-3.9,3.1-5.9,4.5c-1.1,0.7-1.6,1.5-1.5,2.7c-1.9,0-2.1-1.7-2.9-2.9
		c-1.3-3.1-2.4-6.3-4-9.2c-1.1-1.8-1.1-4-1.5-6c-0.5-2.7,0.5-3.3,2.8-2c4.2,2.4,8.3,4.9,12.5,7.3C94.4,168.9,95.4,169.3,96.4,169.8z
		"/>
	<path class="st26" d="M61.8,148.5c-1.7,4.9-4.5,9.4-5.5,14.5c-0.8,1.5-1.7,3.8-3.5,3.3c-2.2-0.6-2.1-3.2-2-5.1
		c0.4-6.7,1.9-13.3,3.8-19.7c1.3-4.4,2.1-9,2-13.6c1.2,2.2,1,4.8,0.4,6.9c-1.4,5-0.1,8.7,3.6,11.9C61.4,147.1,61.8,147.7,61.8,148.5
		z"/>
	<path class="st27" d="M84.4,178c0.7,1,1.5,2,2.2,3.1c2.4,4.2,5.2,8.1,9,11.2c1.4,1.9,3.2,3.4,5.2,4.6c2.3,0.3,3.6,2.3,5.6,3.3
		c2.1,1.7,4.7,2.7,6.4,5c2.7,2,5.7,3.5,8.9,4.5c2.7,1.4,5.4,2.9,8.4,3.7c0.1,1.5-0.8,1.1-1.6,0.8c-4.5-0.3-8.6-2.1-12.6-3.8
		c-14.6-6.2-25.9-15.9-32.2-30.7C83.1,178.6,83,177.9,84.4,178z"/>
	<path class="st28" d="M49.8,109.6c-2.2,2.1-3.3,4.8-4.5,7.5c-0.9,1.9-1.2,4.1-2.4,5.9c-0.5,0.8-0.7,2-2.1,1.7
		c-0.2-0.8-0.8-1.7-0.7-2.4c0.6-2.1,0.5-3.6-2.2-3.7c-0.8,0-1.7-0.9-1.3-1.4c2.2-2.8-0.8-3.3-1.9-4.6c6.4-5.1,13.1-9.6,21-12
		C54.4,104,51.1,106.2,49.8,109.6z"/>
	<path class="st9" d="M265.7,105c1.8-2.3,3.1-5.2,6.5-4c1.4,0.5,2.8,1,2,3.2c-0.6,1.6-0.5,3.2-3,2.3c-2.2-0.8-3.5,0.7-4.3,2.5
		c-0.9,2-1.1,4.1-1.1,6.2c0,5.5-0.1,11,0,16.5c0,1.6-0.6,2.2-2.2,2.1c-1.6,0-1.9-0.7-1.9-2.1c0-9.4,0-18.7,0-28.1
		c0-1.1-0.1-2.2,1.7-2.3C266.2,101.3,264.6,103.6,265.7,105z"/>
	<path class="st29" d="M142.8,88.7c3.1,10.6,5.1,21.4,4.6,33.2c-1.6-1.4-2.3-2.4-2.5-3.8c-1-4.5-3.4-8.4-4.8-12.7
		c-0.4-1.3-1.2-2.4-1.5-3.8c-0.6-4.1-2.9-7.7-3.9-11.7C136.6,87.2,138.9,86.9,142.8,88.7z"/>
	<path class="st30" d="M135.4,91c2.1,3.3,4,6.5,3.6,10.6c-0.4,0.1-0.7,0-1-0.2c-4.2-8.1-8.4-16.3-13.2-24.1
		c-0.3-0.5-0.5-1.1-0.3-1.8c0.4-0.5,0.8-0.9,0.7-1.8c-0.2-2,1-2.4,2.7-1.6c1.4,0.3,2.1-0.5,2.8-1.5c1.4-0.7-0.4-3,1.6-3.3
		c2-0.2,2.8,1.3,3.8,2.6c1.2,3.3,3.3,6.2,3.7,9.8c-1.7,1.5-3.5,0.4-5.3,0.3c-2.7-0.1-3.3,0.6-2,2.9C133.9,85.5,134.7,88.2,135.4,91z
		"/>
	<path class="st31" d="M112.8,205.1c-2.6-0.9-4.7-2.6-6.8-4.3c-0.7-1.3,0-2.2,1-2.8c5.3-3.7,10.1-8,15.4-11.7
		c0.5-0.4,1.1-0.5,1.8-0.5c0.4,0.1,0.7,0.3,0.9,0.6c-2.4,2.1-3.4,4.4-1.6,7.4c-1.3,3.3-3.8,5.3-6.8,6.8
		C114.5,201.4,113.1,202.7,112.8,205.1z"/>
	<path class="st32" d="M329,117.6c0-4.6,0-9.3,0-13.9c0-1.5,0.2-2.3,2-2.3c1.9,0,1.9,1.1,1.9,2.4c0,9.2,0,18.5,0,27.7
		c0,1.4-0.2,2.3-2,2.3c-1.8,0-2-1-2-2.4C329,126.9,329,122.2,329,117.6z"/>
	<path class="st33" d="M148.7,160.5c3.4-1.5,7.3-0.9,10.7-2.1c1.3-0.4,2.5-0.9,3.7-1.4c3.1-0.9,6-2.1,8.3-4.5
		c6-4.1,10.5-9.5,13.9-15.9c2.1-2.7,3.2-5.9,4.7-8.9c0.8-0.1,1.1,0.1,0.8,0.9c-3.9,11.4-10,21.1-20.4,27.6
		C163.9,160.4,156.6,161.8,148.7,160.5z"/>
	<path class="st34" d="M136.1,70c-2-1.7-4-3-5.4,0.7c-1.5-5-5.6-8.3-8.1-12.7c0.6-1.6-1.7-3.8,0.3-4.8c2.2-1.1,4.2,0.6,5.9,2.1
		c0.2,0.2,0.4,0.2,0.7,0.3C131.9,60.3,134.3,65,136.1,70z"/>
	<path class="st35" d="M124.5,75.4c5.3,8.3,10.3,16.8,13.8,26c0,1.3-0.6,1.3-1.5,0.8c-6.8-12.2-13.6-24.3-20.4-36.5
		c-0.1-1.9,1.1-1,1.9-0.9C121.2,67.8,124.3,70.8,124.5,75.4z"/>
	<path class="st36" d="M135.4,91c-1.5-3-3-6.1-4.6-9.1c-1-2-0.2-2.9,1.7-2.8c2.4,0.1,4.9,0.4,7.3,0.7c1.2,2.9,2.4,5.9,3,9
		c-1.8,0-3.6,0-5.4,0C135.8,88.7,135.3,89.5,135.4,91z"/>
	<path class="st37" d="M40.9,124.7c2.1-2.2,2.1-5.6,4.5-7.6c1,1.9-1,6.3,4.1,4.6c-2.2,3.9-3,8.3-3.4,12.7c-0.7,0.7-1.3,1.6-2.2,0.2
		c-1.5-2.2-3.4-4.2-3.7-7C40.3,126.7,40.6,125.7,40.9,124.7z"/>
	<path class="st38" d="M125,186.3c-0.3,0-0.6-0.1-0.9-0.1c1.2-3.5,5.1-4,7.3-6.8c-2.6-1.3-5.6,0.5-8.1-1.3c-1.2-0.2-2.6,0.4-3.7-0.7
		c9.1-0.5,18.3,1,27.4-0.9C140.4,181.4,132.8,184.1,125,186.3z"/>
	<path class="st39" d="M124.5,75.4c-1.8-3.5-3.8-6.9-6.4-10c-2.2-1.9-3.5-4.4-5.1-6.6c-0.2-1.9-2.5-3.1-1.7-5.3
		c4.8,3.6,7.5,9,11.8,13.1c1.8,1.7,3.2,3.7,4.8,5.6c-4.1,0.2-1.4,2.4-0.7,4.2C126,75.9,125.3,75.7,124.5,75.4z"/>
	<path class="st40" d="M136.9,102.2c0.6,0,1.2-0.1,1.5-0.8c0.2,0.1,0.4,0.1,0.6,0.2c3.1,4.9,4.7,10.4,6.6,15.7
		c0.1,0.2-0.4,0.5-0.7,0.8C142.3,112.8,139.6,107.5,136.9,102.2z"/>
	<path class="st41" d="M292.3,89.1c-0.7,2.7-2.4,4.8-3.7,7.1c-0.6,1.1-1.7,1.1-2.6,0.8c-1.4-0.5-0.5-1.6-0.2-2.5
		C287.5,88.5,287.5,88.5,292.3,89.1z"/>
	<path class="st42" d="M332.9,92.1c-0.1,1.7,0.4,3.4-2.1,3.3c-2.8-0.2-1.6-2.3-1.8-3.7c-0.2-1.4-0.2-2.8,1.9-2.8
		C333.9,88.9,332.5,91.1,332.9,92.1z"/>
	<path class="st43" d="M128.5,214c0.6-0.2,1.3-0.1,1.6-0.8c0.7,0,1.4,0.1,2.1,0.1c3.6,1.7,7.4,2.3,11.2,3c0.1,0,0.3,0,0.4,0
		c0.7,0.4-0.2,0.4-0.2,0.6C138.4,216.9,133.4,215.8,128.5,214z"/>
	<path class="st44" d="M191,128.7c-0.3-0.3-0.6-0.6-0.8-0.9c0.4-1.5,0.9-3.1,1.3-4.6c1.3-3.1,2.5-6.1,3.8-9.2
		C194.8,119.2,193.2,124,191,128.7z"/>
	<path class="st45" d="M84.4,178c-0.7,0.3-0.7,1-0.8,1.5c-2-3.2-3.2-6.8-3.9-10.5C82,171.6,83.1,174.8,84.4,178z"/>
	<path class="st4" d="M175.4,107.6c0.9,5.9,0.7,11.8,0.1,17.8C175.4,119.4,175.4,113.5,175.4,107.6z"/>
	<path class="st46" d="M113.5,58.8c2.1,1.8,3.6,4.1,4.7,6.6c-0.6-0.1-1.3-0.8-1.7,0.3c-1.5-1.9-2.7-3.9-3.7-6.2
		C112.5,58.7,112.8,58.6,113.5,58.8z"/>
	<path class="st47" d="M113.5,58.8c-0.2,0.2-0.5,0.5-0.7,0.7c-1-1.8-2.2-3.6-2.8-5.5c-0.6-1.8,0.7-0.8,1.3-0.6
		C111.7,55.4,113.8,56.7,113.5,58.8z"/>
	<path class="st4" d="M175.1,88.1c0,3,0,6-0.1,8.9C174.4,94,174.2,91.1,175.1,88.1z"/>
	<path class="st48" d="M539.9,102.1c0-8,0-8,10-7.2c5.6,0.5,8.5,5.2,6.3,10.4c-1,2.3-2.6,3.6-5.1,3.8c-1.4,0.1-2.7,0.1-4.1,0.1
		C539.9,109.3,539.9,109.3,539.9,102.1z"/>
	<path class="st49" d="M570.9,111.5c0-4.4,0.1-8.8,0-13.1c-0.1-2.3,0.8-2.9,3-2.9c10.8-0.2,14.2,3.1,14.4,14.1
		c0.1,3.3-0.1,6.5-0.8,9.7c-1.3,6.2-4.1,8.4-10.4,8.5c-6.1,0-6.1,0-6.1-6.1C570.9,118.2,570.9,114.9,570.9,111.5
		C570.9,111.5,570.9,111.5,570.9,111.5z"/>
	<path class="st49" d="M526.8,111.7c0.3,3.5-0.1,7-1.6,10.2c-1.7,3.7-4.1,6.5-8.7,6.6c-4.4,0-7-2.6-8.5-6.2
		c-3.2-7.2-2.9-14.6,0-21.8c1.4-3.5,4.2-5.8,8.4-5.8c4.2-0.1,6.8,2.2,8.5,5.7C526.5,103.9,527.1,107.7,526.8,111.7z"/>
	<path class="st49" d="M418.4,111.9c0.3-5.2,0.5-8.8,2.4-12.1c1.8-3.3,4.5-5.2,8.4-5.2c3.9,0,6.6,2,7.9,5.2
		c3.3,7.6,3.5,15.5,0.1,23.2c-1.4,3.2-4,5.3-7.9,5.4c-4,0.1-6.6-1.9-8.4-5.1C418.6,119.3,418.5,114.8,418.4,111.9z"/>
	<path class="st50" d="M305.7,117.8c-0.1-3.2,0.1-6.1,1.3-8.7c1-2.1,2.3-3.8,5-3.9c2.6-0.1,4.2,1.4,5.2,3.6
		c2.5,5.8,2.5,11.6,0.4,17.5c-0.8,2.1-2.2,3.9-5,3.9c-2.9,0.1-4.3-1.7-5.4-3.9C305.8,123.5,305.4,120.6,305.7,117.8z"/>
	<path class="st51" d="M286.7,114.8c-0.4,0-0.8,0.1-1.1,0c-1.8-0.4-4.8,1.2-5.2-1.1c-0.6-2.9,0.8-5.9,3.5-7.7
		c2.1-1.4,4.6-1.4,6.6,0.2c2.2,1.7,3,4.2,3.2,6.9c0.1,2.1-1.3,1.7-2.5,1.7C289.7,114.9,288.2,114.8,286.7,114.8z"/>
	<path class="st50" d="M369.3,116.6c0,3.9-0.4,6.9-1.7,9.6c-1.1,2.4-2.8,4-5.8,3.9c-2.9-0.1-4.7-1.8-5.6-4.2
		c-2.1-5.5-2.1-11.2,0-16.7c0.9-2.4,2.7-4.1,5.7-4.1c2.8,0,4.4,1.5,5.5,3.7C368.9,111.6,369.3,114.5,369.3,116.6z"/>
	<path class="st52" d="M123.3,178.1c2.9,0,5.7-0.1,8.6-0.1c0.6,0,1.4-0.1,1.6,0.7c0.2,0.7-0.4,1.1-0.9,1.4c-2.8,2-5.6,4-8.5,6.1
		c-5.8,4.3-11.5,8.6-17.3,13c-0.4,0.3-0.5,1-0.8,1.6c-2-1-3.6-2.4-5.1-4c1.5-3.1,4.4-4.9,6.9-6.8c4.6-3.5,9.5-6.6,14.2-9.8
		C122.8,179.6,123.3,179.1,123.3,178.1z"/>
</g>
</svg>
