<?xml version="1.0" encoding="utf-8"?>
<!-- Generator: Adobe Illustrator 19.2.1, SVG Export Plug-In . SVG Version: 6.00 Build 0)  -->
<svg version="1.1" id="Capa_1" xmlns="http://www.w3.org/2000/svg" xmlns:xlink="http://www.w3.org/1999/xlink" x="0px" y="0px"
	 viewBox="0 0 793.7 226.8" style="enable-background:new 0 0 793.7 226.8;" xml:space="preserve">
<style type="text/css">
	.st0{fill:#B2B7BE;}
	.st1{fill:#E62E28;}
	.st2{fill:#74787B;}
	.st3{fill:#F3996B;}
	.st4{fill:#F9B023;}
	.st5{fill:#E73829;}
	.st6{fill:#F18724;}
	.st7{fill:#040506;}
	.st8{fill:#74509A;}
	.st9{fill:#050606;}
	.st10{fill:#75509B;}
	.st11{fill:#744F9B;}
	.st12{fill:#ED6F26;}
	.st13{fill:#D0CFD1;}
	.st14{fill:#F59E26;}
	.st15{fill:#75509C;}
	.st16{fill:#868688;}
	.st17{fill:#B5B5BF;}
	.st18{fill:#DBDBDB;}
	.st19{fill:#EC6626;}
	.st20{fill:#E94F28;}
	.st21{fill:#DEDEDE;}
	.st22{fill:#8C1913;}
	.st23{fill:#FBCA13;}
	.st24{fill:#9F9E9F;}
	.st25{fill:#7A797D;}
	.st26{fill:#EC6625;}
	.st27{fill:#070808;}
	.st28{fill:#F0846B;}
	.st29{fill:#868686;}
	.st30{fill:#A8A8A8;}
	.st31{fill:#C6C5C4;}
	.st32{fill:#080909;}
	.st33{fill:#7D1B12;}
	.st34{fill:#C7C6C7;}
	.st35{fill:#19191A;}
	.st36{fill:#9B9A9D;}
	.st37{fill:#EA5429;}
	.st38{fill:#C5C5C4;}
	.st39{fill:#C8C6C7;}
	.st40{fill:#545454;}
	.st41{fill:#0C0D0E;}
	.st42{fill:#030405;}
	.st43{fill:#272729;}
	.st44{fill:#9B5E27;}
	.st45{fill:#323132;}
	.st46{fill:#3B3A3A;}
	.st47{fill:#7E7D7E;}
	.st48{fill:#FEFEFE;}
	.st49{fill:#FFFFFF;}
	.st50{fill:#FCFCFC;}
	.st51{fill:#B1B0B0;}
</style>
<g>
	<path class="st0" d="M28.6,67.5c-0.4-3.2,1.7-5.4,6.5-6.7c6.4-1.8,12.9-3.6,19.3-5.4c1.2-0.3,2.3-0.8,3.5-1.2c4.9-1.7,5.7-3,4.9-8
		c-0.7-4.2-2.5-5.5-7.3-5.7c-6.4-0.2-12.1,2.3-17.8,4.8c-7.7,3.3-15.7,5.3-24,6.3c-4.5,0.5-6.6-1-6.2-5.4c0.8-10,0.4-20.1,2.1-30.1
		c1.1-6,3.2-7.4,9.4-6c11.4,2.8,21.8,8,32.4,13c13.4,6.3,25.7,14.4,37.4,23.5c5.1,4,10,8.1,13.9,13.4c0.3,1.8-1.2,2.3-2.2,3
		c-4,2.8-7.2,6.4-9.3,10.8c-0.9,1.8-1.8,3.6-4.3,3.4c-7.1-2-14.1-4.3-21.4-5.6c-10-1.8-20.1-2.6-30.2-2.3
		C32.8,69.4,30.5,69.3,28.6,67.5z"/>
	<path class="st1" d="M87.8,97.4c5.9,0.7,11.6,2.4,16.6,5.8c1.6,1.1,3.3,2.3,2.6,4.8c-1,2.2-2.9,3.6-4.8,4.5
		c-5.1,2.4-9.1,6.1-13,9.9c-1,0.9-1.9,2.1-3.5,1.5c-2.9-4.2-6.9-7.5-9.8-11.7c-2-2.9-5.1-4.7-7.3-7.4c-2.9-3.4-2.4-5.5,1.9-6.6
		C76.2,96.4,82,97.1,87.8,97.4z"/>
	<path class="st2" d="M87.6,76.5c1.2-0.1,1.6-0.9,2-1.9c2.5-5.8,6.5-10.4,12.1-13.5c0.4-0.2,0.6-0.7,0.9-1.1c2.1-0.1,2.9,1.7,4,3
		c6.7,7.9,12.9,16.3,18.1,25.3c1.2,2.1,2.7,4.4,0.4,6.8c-5.7-0.8-10.3-4.1-15.2-6.6c-6.4-3.4-12.7-6.8-19.3-9.6
		C89.4,78.4,87.7,78.4,87.6,76.5z"/>
	<path class="st3" d="M38.1,156.8c-3.4-6.1-7-12.2-10.2-18.4c-3.4-6.6-2.4-11.3,3.8-17.3c3.4-3.3,6.8-6.9,10.9-9.5
		c2,0.3,3.7,0.8,3.4,3.4c-0.1,0.5-0.2,1.2,0.3,1.4c3.9,1.4,2.5,4.8,3,7.5c0,1.2-0.4,2.2-0.9,3.3c-3.6,9.1-7.3,18.1-9.4,27.7
		C38.9,155.6,38.8,156.3,38.1,156.8z"/>
	<path class="st4" d="M187.4,83.4c4,3.1,7.1,7,9.7,11.3c-1.1,3.3-1.8,6.7-1.5,10.1c0.3,3.7,0.5,7.4,0,11.1c-0.5,3.2,1.7,6.2,0,9.7
		c1.8-1.2,1.5-3.9,4-3.5c0.7,1.8-0.4,3.2-1,4.8c-1.4,3.3-2.1,7.1-5.1,9.6c-1.8,1.2-2.3,3.6-4.2,4.7c-1.1,0.6-2.1,1.4-3.4,0.6
		c-1.2-0.8-1.5-2-1.3-3.3c0.9-7.9-0.6-15.7-0.7-23.6c0-2.4-0.3-4.7,0.6-7c0.8-2,0.5-4.2,0.1-6.3c-0.7-4.6-0.4-9.2-0.3-13.8
		C184.3,85.7,184.7,83.7,187.4,83.4z"/>
	<path class="st5" d="M87.8,97.4c-5.6,0.5-11.2-0.7-16.7,1c-1.3,0.4-3.2,0.3-3.6,2.2c-0.5,2,1.2,2.6,2.3,3.8
		c5.7,6.2,11.9,11.9,16.3,19.2c-2.6,4-4.6,8.5-9.1,10.9c-2.7-1.3-4.3-3.9-5.8-6.2c-3.5-5.3-9.7-8.2-12.2-14.3
		c-0.7-1.7-1.7-3.3-2-5.2c1-3.9,3.7-6.6,6.5-9.2C71.4,96.1,79.5,96,87.8,97.4z"/>
	<path class="st6" d="M165.5,131.2c4.9-10.4,6.3-21.6,7.3-32.9c0.1-1,0.2-2,0.3-3s0.4-2.1,1.7-2.1c1.1,0,1.3,1,1.4,1.9
		c0.2,1.6,0.4,3.2,0.5,4.8c0.4,8.7-0.6,17.4,1,26.1c-0.9,7.5-1.4,15-0.5,22.5c0.2,1.4,1,2.2,2,3c-1.4,4.4-5.3,4.7-8.9,5.5
		c-2.8,0.2-4.1-1.2-4.4-3.9c-0.3-2.3-0.9-4.7-0.4-7C166.3,141.1,166.1,136.1,165.5,131.2z"/>
	<path class="st7" d="M87.6,76.5c13,5.2,24.8,12.8,37.5,18.6c-1.9,0.7-3.6,0.4-5.4-0.4C94.4,83.1,67.8,75.9,40.2,71.9
		c-2.7-0.4-5.4-0.9-8.1-1.6c-1.6-0.4-3.2-0.9-3.6-2.8c2.5,1,5.2,0.7,7.8,0.7C53.9,67.9,71,70.5,87.6,76.5z"/>
	<path class="st8" d="M748.1,151.5c-4.8,1.5-7.1,0.2-8.8-4.1c-2.3-6.1-5.1-11.8-7.7-17.7c-1.1-2.5-2.6-4.6-4.5-6.2
		c-3.5-2.9-7.7-2.6-11.3-1.5c-3.2,1-1.4,5.1-1.5,7.7c-0.3,6.1,0,12.3,0,18.3c0,2.1,0,4.1-2.9,4.1c-3,0-2.6-2.3-2.7-4.3
		c0-19.8,0-39.6,0-59.4c0-2.8,0.8-4.1,3.5-3.9c6.6,0.2,13.1,0,19.8,0.2c5.4,0.2,9.1,3.3,11.2,8.7c3.9,10.6,1.2,20.8-7.5,26.3
		c-2.4,1.5-2.4,2.5-0.8,4.6C741,132.3,743.9,142.2,748.1,151.5z"/>
	<path class="st9" d="M249.1,120.1c-0.2,4.3,0.5,10,2.1,15.4c2.6,8,8,12.8,14.2,12.8c6-0.2,10.9-4.7,13.3-12.9
		c0.8-2.3,0-6.4,4.5-4.6c2.1,0.8,2.7,2,2.4,4.4c-1.4,10.1-8.9,19.6-16.8,20.8c-10.3,1.6-18.7-3.6-22.6-14.7
		c-5-13.9-5.3-28.3-1.2-42.5c1.8-6.1,5-11.3,10.3-14.9c12.1-8.2,28.4,0.3,30,15.7c0.3,2.9-1.8,2.8-3,3.4c-1.1,0.5-3,1.6-3.5-1.1
		c-0.2-1.1-0.8-2.3-1.1-3.4c-2-5.2-5.1-9.2-10.6-9.7c-6-0.7-10.6,2.3-13.7,7.7C249.4,103,249.1,110.7,249.1,120.1z"/>
	<path class="st10" d="M755,117.9c0-9.3,0.2-18.8-0.2-28.1c-0.2-4.4,1.4-5.7,5.1-5.2c3.3,0.3,6.8,0,10.1,0
		c10.7,0.2,15.5,3.4,19.2,14.2c4.5,13.7,4.1,27.5-0.9,41.2c-2.9,8-8.6,11.6-16.1,12.1c-4.5,0.3-9.1-0.2-13.6,0.2
		c-3,0.2-3.9-1.1-3.8-4.3C755.2,138.1,755,127.9,755,117.9z"/>
	<path class="st8" d="M699.9,118.9c0.5,7.4-0.9,14.4-3.9,21.1c-3.5,8-9.4,13.1-17.5,13.3c-8.3,0-14.2-5.4-17.5-13.3
		c-5.9-14.2-5.9-29,0-43.2c3.2-7.7,8.8-12.8,16.9-13.1c8.3-0.3,13.7,4.7,17.5,12.1C699.2,102.7,700.2,110.6,699.9,118.9z"/>
	<path class="st11" d="M525,115.3c0.5-7.9,1.7-17,7.7-24.5c7.5-9.5,19.3-9.7,27.2-0.7c10.7,12.4,11.2,42.5,0.9,55.5
		c-9.1,11.3-23.4,9.8-30.8-3.3C526.7,136.3,524.4,125.1,525,115.3z"/>
	<path class="st7" d="M379.5,150c-9.2,9.3-18,7.4-22.6-5.6c-3.9-10.8-3.6-22.1,0-32.9c4.1-11.9,13.1-14.2,22.6-4.9c0-7,0-13.4,0-20
		c0-2.3-1.2-5.6,3-5.6c4.1,0,2.7,3.3,2.7,5.2c0.2,21.1,0.2,42.1,0,63.2c0,1.8,1.5,4.6-2.1,5.1C379.4,155.4,380.7,151.6,379.5,150z"
		/>
	<path class="st12" d="M38.1,156.8c-0.2-6,2.5-11.3,4.4-16.7c1.6-4.5,2.6-9.3,5.4-13.4c2.3,2,2.4,5.9,5.9,6.8
		c-1.4,10.5-2.5,21-5.9,31.1c-0.5,1.4-0.7,3.4-2.2,3.7c-1.7,0.3-2.2-1.7-2.9-3C41.1,162.5,39.6,159.6,38.1,156.8z"/>
	<path class="st9" d="M335.9,130.2c-3.6,0-6.5,0.3-9.4,0c-4.5-0.7-5.7,1.6-4.5,5.9c0.6,2.1,1.2,4.3,2.1,6.2c1.8,3.9,4.5,6.4,8.9,6.4
		c4.2-0.2,6.8-2.9,7.8-6.7c1.1-3.6,3.2-4.7,5.9-3.3c2.9,1.6,0.8,4.1,0,6.2c-2.4,6.5-6.6,10.6-13.4,11c-7.1,0.2-11.9-3.4-14.6-10.1
		c-4.2-10.8-4.1-21.9-0.8-32.7c2.6-8,8.1-12.3,14.5-12.3c6.3,0,11.5,4.4,14.2,12.8c1.7,5.1,3.9,11.3,1.7,15.2
		C345.9,132.8,339.5,129.4,335.9,130.2z"/>
	<path class="st13" d="M161.9,185.2c0.6,0,1.3,0,1.9-0.1c3.2-0.5,4.7,0.7,4.2,4.1c-0.4,2.4,0.7,4.9-0.8,7.2
		c-0.7-0.7-0.8-1.9-2.4-0.7c-7.1,5.2-14.6,9.8-21,15.9c-1,1-2.3,1.4-3.7,1.4c-0.7-0.1-1.5-0.1-2.2-0.2c-2.9-1.1-6.4-1.2-8.3-4.2
		c1.4-1.8,3.4-2.9,5.3-4C144.2,198.8,152.1,190.7,161.9,185.2z"/>
	<path class="st14" d="M179.4,151.6c-2.3,0.5-2.9-0.6-3.3-2.7c-1.1-7.3,0.1-14.6,0-21.8c0-1.3,0.5-1.5,1.6-1.1
		c2.7,2.3,4.3,1,5.5-1.6c0-5.9,0.2-11.8-0.1-17.8c-0.1-3.5-0.2-7-0.3-10.6c-0.5-3-0.6-6,0.1-8.9c0-0.6,0-1.2,0-1.9
		c0.1-1.2-0.3-2.6,1-3.3c1.7-0.9,2.3,0.9,3.4,1.5c-1.4,1-2.3,2.3-2.2,4.1c0.3,4.9-0.6,9.9,0.6,14.9c0.4,1.9,0.6,4-0.4,5.9
		c-1.3,2.5-1,5-0.6,7.6c0.4,2.4,0.5,5,0.2,7.4c-0.2,1.8-0.8,3.3,0.9,4.7c0.9,0.7,0.6,1.5-0.1,2.3c-0.6,0.7-0.9,1.6-0.2,2.4
		c1.4,1.5,0.9,2.9,0.1,4.4c-0.7,1.5-1.3,3.5,0.6,4.2c1.5,0.6,2.9-1,3.9-2.2s1-3.2,3.1-3.3c0.5,0.7,0.3,1.5-0.1,2.1
		c-3,5.1-6.9,9.4-11.4,13.1C181.1,151.5,180.3,151.8,179.4,151.6z"/>
	<path class="st15" d="M613,151.5c-4.8,1.6-7.1,0-8.8-3.9c-2.6-6.4-5.7-12.4-8.8-18.5c-0.8-1.5-1.1-3.6-2.6-3.8
		c-2.1-0.2-2.1,2.5-2.9,3.9c-3.2,6.2-6.3,12.4-9.2,19c-1.7,3.8-3.9,4.9-8.1,3.3c5-10,9.8-20,14.8-29.6c1.8-3.4,2-6.1,0.2-9.7
		c-4.5-8.7-8.6-17.7-12.8-26.7c4.4-2.3,6.5-0.5,8.3,3.6c3,6.7,6.3,13.4,9.5,20.1c7.2-7.5,7.4-20.8,17.4-25.2
		c0.6,0.5,1.1,0.8,1.7,1.3c-4.1,8.2-7.8,16.5-12.2,24.4c-2.9,5.1-2.6,9.2,0.2,14.1C604.1,132.7,608.3,142,613,151.5z"/>
	<path class="st9" d="M462.1,128.6c0.2,6.5-0.6,12.9-3.8,18.8c-6.2,11.6-20.2,11.8-26,0c-5.9-12.1-5.6-24.9-0.5-37.1
		c2.6-6.1,7.4-9.8,13.9-9.5c6.5,0.3,10.7,4.3,13.4,10.5C461.5,116.6,462.2,122.5,462.1,128.6z"/>
	<path class="st9" d="M482.3,155.9c-7.4,0-12.4-4.1-14.2-12.1c-0.5-1.6-1.8-4.1,1.1-5.1c2.6-1,3.9-0.5,4.7,2.9
		c1.4,5.4,5.1,7.9,10.4,7c3.6-0.5,5.7-2.8,6.3-6.5c0.8-4.1-0.6-6.7-4.1-8.3c-4.1-1.6-8.1-3.1-12.1-5.2c-5.4-3.1-7.7-11-5.6-18.3
		c1.8-6.2,6.9-9.8,13.6-9.5c6.6,0.3,11.3,4.4,12.5,11c0.3,1.6,1.4,3.4-1.5,4.1c-2.1,0.5-3.5,1-4.2-2c-1.4-5.4-5.3-6.4-9.8-5.7
		c-2.9,0.5-4.7,2.3-5.1,5.6s0.5,5.7,3.3,7c3.6,1.6,7.4,2.9,11,4.7c6.9,3.4,10,10.1,8.5,18C495.3,151,489.7,155.9,482.3,155.9z"/>
	<path class="st16" d="M104.2,168.8c4.9,2,9.9,4,14.8,6.1c0.8,0.4,1.6,0.4,2.5,0.6c1.5,3.3-1.6,4.3-3.3,5.2
		c-3.4,1.8-6.1,4.5-9.4,6.5c-1.9,1.1-3.4,2.8-5.2,4.2c-2.2,0.2-3.3-1.5-4.4-2.9c-2-2.6-4.3-5-5.4-8.2c-0.4-2.1,0.9-3.1,2.4-4.2
		C99,173.8,102.1,171.9,104.2,168.8z"/>
	<path class="st17" d="M140,212.3c4.2-0.3,5.8-4.4,8.9-6.4c6.1-3.9,11.8-8.4,17.7-12.7c0.9,1,0.3,2.2,0.5,3.2
		c-0.8,4.4-0.9,8.8-2.4,13.1c-2,6-7.1,8.5-13.4,6.5c-2.6-0.5-5.2-1.1-7.8-1.7C142.3,214.1,140.5,214.3,140,212.3z"/>
	<path class="st18" d="M161.9,185.2c-1.6,2.6-4.2,4.1-6.8,5.6c-3.4,1.9-6,4.6-9,7c-5.2,4.1-10.4,8.2-16.6,10.8
		c-3.9,0.2-6.7-1.8-9.3-4.4c-0.4-2,0.5-3.6,2.1-4.4c3.5-1.8,6.1-4.6,8.9-7.1c6.3,2.3,12-0.1,17.6-2.4c3.6-1.4,7-3.2,10.5-4.7
		C160.1,185.2,161,185.3,161.9,185.2z"/>
	<path class="st19" d="M165.5,131.2c3,4.3,1.7,9.1,1.1,13.6c-0.5,3.5,0.2,6.7,0.6,9.9c0.3,2.2,2.4,1,3.7,1.4c-1.4,3-4.3,2.6-6.7,2.8
		c-2.6,0.3-5.2,0.5-7.8,0.6c-1-0.2-2-0.3-2.9-0.6c-4.7-1.5-5.7-4.7-2.4-8.4C156.6,144.6,161.8,138.4,165.5,131.2z"/>
	<path class="st15" d="M619.5,118.3c0-9.7,0.2-19.1,0-28.8c-0.2-3.8,1.1-4.9,4.5-4.9c7.4,0.2,14.6,0.2,22,0c2.6,0,4.2,0.3,4.1,3.9
		c0,3.8-2,3.8-4.4,3.6c-5.4,0-10.9,0.2-16.5,0c-3-0.2-4.2,0.8-4.4,4.4c-0.6,17.3-0.6,17.3,15.1,17.3c1.4,0,2.6,0.2,3.9,0
		c2.4-0.2,2.7,1.5,2.7,3.6c0,2.3-0.8,3.4-2.9,3.4c-4.1,0-8.3,0.2-12.4,0c-4.7-0.3-6.8,1.1-6.3,6.9c0.5,6.7,0.2,13.4,0.2,20.1
		c0,2,0.5,4.3-2.6,4.4c-3.2,0-3-2.1-3-4.6C619.5,137.7,619.5,127.9,619.5,118.3z"/>
	<path class="st20" d="M57.6,108.6c2.3,5,4.6,9.8,9.4,13.4c4.1,3.1,6.8,8.1,10.1,12.2c0.5,2.1-0.9,3.5-1.8,5
		c-1.2,2.1-2.3,4.3-3.6,6.4c-0.5,0.9-0.8,2.5-2.6,2c-4.6-3.8-6.8-8.1-4.6-14.3c0.7-1.9,0.4-4.4-0.1-6.6c-1.3-5.4-2.8-7.1-6.2-6.7
		c-0.4,0-0.8,0.5-1.2,0.7c-3.3,2-4.2,1.3-4.8-4.1C53.3,113.6,53.8,110,57.6,108.6z"/>
	<path class="st21" d="M130.4,57c-4.5-5.3-7.9-11.4-12.7-16.5c-1.7-1.8-3.2-3.8-4.7-5.8c-1-1.4-0.5-2.4,1.2-2.4c3.4,0,6.7,0,10.1,0
		c1.2,0,2.1,0.8,2.7,1.8c3.3,6.5,6.2,13.3,10,19.5c0.2,0.3,0.1,0.7,0.1,1.1c-0.3,0.2-0.7,0.3-1.1,0.1C131.8,53.1,131.8,53,130.4,57z
		"/>
	<path class="st22" d="M69.6,147.5c2.5-4.4,5-8.8,7.6-13.2c3.4-3.2,5.2-7.7,9-10.7c2.6-2.3,5.3-4.4,7.7-6.8
		c3.8-3.9,9.5-4.8,13.1-8.8c0.4,1.3-0.5,2.1-1.4,2.8c-16.8,14.7-29.7,32.5-41.5,51.2c-1.2-0.4-1-1.4-0.7-2.2
		c1.6-3.7,3.1-7.3,4.5-11.1C68.2,148.1,68.7,147.5,69.6,147.5z"/>
	<path class="st23" d="M199.3,122.2c-1.8,0.9-1.4,3.1-2.6,4.4c-0.5,0.5-0.9,1.4-1.7,1.1c-0.9-0.4-0.5-1.2-0.5-1.9
		c0-7.2,0.9-14.4-0.3-21.5c-0.2-1.4,0-2.7,0.7-4c0.6-1.1,0.8-2,0-3.1c-2.1-3.1,0.5-2.4,2.1-2.5c5,5.1,8.5,10.7,6.1,18.3
		C202,116.1,202,119.7,199.3,122.2z"/>
	<path class="st9" d="M418,84.4c0,3.6-0.2,6.5,0,9.7c0.2,3.8-1.7,8.7,4.8,8c1.8-0.2,1.5,2,1.5,3.3c0.2,2-0.6,3.3-2.6,3.1
		c-3.5-0.3-4.1,1.6-3.9,4.7c0.2,9.2,0,18.3,0.2,27.5c0,3.4,0.3,6.5,4.7,6.7c3.2,0.2,1.7,3.4,2.1,5.4c0.5,2.3-1.5,2.5-2.9,2.8
		c-5.3,1-9.4-3.1-9.5-10c-0.2-10.8-0.2-21.6-0.2-32.4c0-2.3,0.2-4.1-2.7-4.9c-3.2-0.8-2.3-5.7-0.9-5.9c5.7-0.7,3.5-5.1,3.5-7.9
		C412.1,90,412.9,86.5,418,84.4z"/>
	<path class="st24" d="M103.4,191.2c0-1.1,0.7-1.7,1.6-2.3c5-3.5,9.9-7.1,14.9-10.7c1-0.7,1.7-1.4,1.5-2.7c2,0.3,4,0.5,6,0.8
		c1.2,0.6,2.5,0,3.8,0.5c1.1,1.9-0.5,2.7-1.6,3.6c-3.1,2.5-6.5,4.6-9.8,6.8c-3.9,2.7-7.4,5.8-11.1,8.7
		C106,195.3,103.6,194.5,103.4,191.2z"/>
	<path class="st25" d="M104.2,168.8c0.9,2.4-1.3,3-2.4,4c-1.8,1.7-3.9,3.1-5.9,4.5c-1.1,0.7-1.6,1.5-1.5,2.7c-1.9,0-2.1-1.7-2.9-2.9
		c-1.3-3.1-2.4-6.3-4-9.2c-1.1-1.8-1.1-4-1.5-6c-0.5-2.7,0.5-3.3,2.8-2c4.2,2.4,8.3,4.9,12.5,7.3
		C102.2,167.9,103.2,168.3,104.2,168.8z"/>
	<path class="st26" d="M69.6,147.5c-1.7,4.9-4.5,9.4-5.5,14.5c-0.8,1.5-1.7,3.8-3.5,3.3c-2.2-0.6-2.1-3.2-2-5.1
		c0.4-6.7,1.9-13.3,3.8-19.7c1.3-4.4,2.1-9,2-13.6c1.2,2.2,1,4.8,0.4,6.9c-1.4,5-0.1,8.7,3.6,11.9C69.2,146.1,69.6,146.7,69.6,147.5
		z"/>
	<path class="st27" d="M92.2,177c0.7,1,1.5,2,2.2,3.1c2.4,4.2,5.2,8.1,9,11.2c1.4,1.9,3.2,3.4,5.2,4.6c2.3,0.3,3.6,2.3,5.6,3.3
		c2.1,1.7,4.7,2.7,6.4,5c2.7,2,5.7,3.5,8.9,4.5c2.7,1.4,5.4,2.9,8.4,3.7c0.1,1.5-0.8,1.1-1.6,0.8c-4.5-0.3-8.6-2.1-12.6-3.8
		c-14.6-6.2-25.9-15.9-32.2-30.7C90.9,177.6,90.8,176.9,92.2,177z"/>
	<path class="st28" d="M57.6,108.6c-2.2,2.1-3.3,4.8-4.5,7.5c-0.9,1.9-1.2,4.1-2.4,5.9c-0.5,0.8-0.7,2-2.1,1.7
		c-0.2-0.8-0.8-1.7-0.7-2.4c0.6-2.1,0.5-3.6-2.2-3.7c-0.8,0-1.7-0.9-1.3-1.4c2.2-2.8-0.8-3.3-1.9-4.6c6.4-5.1,13.1-9.6,21-12
		C62.2,103,58.9,105.2,57.6,108.6z"/>
	<path class="st9" d="M300,107.6c2.7-3.8,4.7-8.5,9.8-6.5c2.1,0.8,4.2,1.6,3,5.2c-0.9,2.6-0.8,5.2-4.5,3.8c-3.3-1.3-5.3,1.1-6.5,4.1
		c-1.4,3.3-1.7,6.7-1.7,10.1c0,9-0.2,18,0,27c0,2.6-0.9,3.6-3.3,3.4c-2.4,0-2.9-1.1-2.9-3.4c0-15.4,0-30.6,0-46
		c0-1.8-0.2-3.6,2.6-3.8C300.7,101.6,298.3,105.3,300,107.6z"/>
	<path class="st29" d="M150.6,87.7c3.1,10.6,5.1,21.4,4.6,33.2c-1.6-1.4-2.3-2.4-2.5-3.8c-1-4.5-3.4-8.4-4.8-12.7
		c-0.4-1.3-1.2-2.4-1.5-3.8c-0.6-4.1-2.9-7.7-3.9-11.7C144.4,86.2,146.7,85.9,150.6,87.7z"/>
	<path class="st30" d="M143.2,90c2.1,3.3,4,6.5,3.6,10.6c-0.4,0.1-0.7,0-1-0.2c-4.2-8.1-8.4-16.3-13.2-24.1
		c-0.3-0.5-0.5-1.1-0.3-1.8c0.4-0.5,0.8-0.9,0.7-1.8c-0.2-2,1-2.4,2.7-1.6c1.4,0.3,2.1-0.5,2.8-1.5c1.4-0.7-0.4-3,1.6-3.3
		c2-0.2,2.8,1.3,3.8,2.6c1.2,3.3,3.3,6.2,3.7,9.8c-1.7,1.5-3.5,0.4-5.3,0.3c-2.7-0.1-3.3,0.6-2,2.9C141.7,84.5,142.5,87.2,143.2,90z
		"/>
	<path class="st31" d="M120.6,204.1c-2.6-0.9-4.7-2.6-6.8-4.3c-0.7-1.3,0-2.2,1-2.8c5.3-3.7,10.1-8,15.4-11.7
		c0.5-0.4,1.1-0.5,1.8-0.5c0.4,0.1,0.7,0.3,0.9,0.6c-2.4,2.1-3.4,4.4-1.6,7.4c-1.3,3.3-3.8,5.3-6.8,6.8
		C122.3,200.4,120.9,201.7,120.6,204.1z"/>
	<path class="st32" d="M395.5,128.2c0-7.5,0-15.2,0-22.7c0-2.5,0.3-3.8,3-3.8c2.9,0,2.9,1.8,2.9,3.9c0,15.1,0,30.3,0,45.3
		c0,2.3-0.3,3.8-3,3.8s-3-1.6-3-3.9C395.5,143.5,395.5,135.8,395.5,128.2z"/>
	<path class="st33" d="M156.5,159.5c3.4-1.5,7.3-0.9,10.7-2.1c1.3-0.4,2.5-0.9,3.7-1.4c3.1-0.9,6-2.1,8.3-4.5
		c6-4.1,10.5-9.5,13.9-15.9c2.1-2.7,3.2-5.9,4.7-8.9c0.8-0.1,1.1,0.1,0.8,0.9c-3.9,11.4-10,21.1-20.4,27.6
		C171.7,159.4,164.4,160.8,156.5,159.5z"/>
	<path class="st34" d="M143.9,69c-2-1.7-4-3-5.4,0.7c-1.5-5-5.6-8.3-8.1-12.7c0.6-1.6-1.7-3.8,0.3-4.8c2.2-1.1,4.2,0.6,5.9,2.1
		c0.2,0.2,0.4,0.2,0.7,0.3C139.7,59.3,142.1,64,143.9,69z"/>
	<path class="st35" d="M132.3,74.4c5.3,8.3,10.3,16.8,13.8,26c0,1.3-0.6,1.3-1.5,0.8C137.8,89,131,76.9,124.2,64.7
		c-0.1-1.9,1.1-1,1.9-0.9C129,66.8,132.1,69.8,132.3,74.4z"/>
	<path class="st36" d="M143.2,90c-1.5-3-3-6.1-4.6-9.1c-1-2-0.2-2.9,1.7-2.8c2.4,0.1,4.9,0.4,7.3,0.7c1.2,2.9,2.4,5.9,3,9
		c-1.8,0-3.6,0-5.4,0C143.6,87.7,143.1,88.5,143.2,90z"/>
	<path class="st37" d="M48.7,123.7c2.1-2.2,2.1-5.6,4.5-7.6c1,1.9-1,6.3,4.1,4.6c-2.2,3.9-3,8.3-3.4,12.7c-0.7,0.7-1.3,1.6-2.2,0.2
		c-1.5-2.2-3.4-4.2-3.7-7C48.1,125.7,48.4,124.7,48.7,123.7z"/>
	<path class="st38" d="M132.8,185.3c-0.3,0-0.6-0.1-0.9-0.1c1.2-3.5,5.1-4,7.3-6.8c-2.6-1.3-5.6,0.5-8.1-1.3
		c-1.2-0.2-2.6,0.4-3.7-0.7c9.1-0.5,18.3,1,27.4-0.9C148.2,180.4,140.6,183.1,132.8,185.3z"/>
	<path class="st39" d="M132.3,74.4c-1.8-3.5-3.8-6.9-6.4-10c-2.2-1.9-3.5-4.4-5.1-6.6c-0.2-1.9-2.5-3.1-1.7-5.3
		c4.8,3.6,7.5,9,11.8,13.1c1.8,1.7,3.2,3.7,4.8,5.6c-4.1,0.2-1.4,2.4-0.7,4.2C133.8,74.9,133.1,74.7,132.3,74.4z"/>
	<path class="st40" d="M144.7,101.2c0.6,0,1.2-0.1,1.5-0.8c0.2,0.1,0.4,0.1,0.6,0.2c3.1,4.9,4.7,10.4,6.6,15.7
		c0.1,0.2-0.4,0.5-0.7,0.8C150.1,111.8,147.4,106.5,144.7,101.2z"/>
	<path class="st41" d="M340.1,81.6c-1.1,4.4-3.6,7.9-5.6,11.6c-0.9,1.8-2.6,1.8-3.9,1.3c-2.1-0.8-0.8-2.6-0.3-4.1
		C332.9,80.6,332.9,80.6,340.1,81.6z"/>
	<path class="st42" d="M401.4,86.5c-0.2,2.8,0.6,5.6-3.2,5.4c-4.2-0.3-2.4-3.8-2.7-6.1c-0.3-2.3-0.3-4.6,2.9-4.6
		C402.9,81.3,400.8,84.9,401.4,86.5z"/>
	<path class="st43" d="M136.3,213c0.6-0.2,1.3-0.1,1.6-0.8c0.7,0,1.4,0.1,2.1,0.1c3.6,1.7,7.4,2.3,11.2,3c0.1,0,0.3,0,0.4,0
		c0.7,0.4-0.2,0.4-0.2,0.6C146.2,215.9,141.2,214.8,136.3,213z"/>
	<path class="st44" d="M198.8,127.7c-0.3-0.3-0.6-0.6-0.8-0.9c0.4-1.5,0.9-3.1,1.3-4.6c1.3-3.1,2.5-6.1,3.8-9.2
		C202.6,118.2,201,123,198.8,127.7z"/>
	<path class="st45" d="M92.2,177c-0.7,0.3-0.7,1-0.8,1.5c-2-3.2-3.2-6.8-3.9-10.5C89.8,170.6,90.9,173.8,92.2,177z"/>
	<path class="st4" d="M183.2,106.6c0.9,5.9,0.7,11.8,0.1,17.8C183.2,118.4,183.2,112.5,183.2,106.6z"/>
	<path class="st46" d="M121.3,57.8c2.1,1.8,3.6,4.1,4.7,6.6c-0.6-0.1-1.3-0.8-1.7,0.3c-1.5-1.9-2.7-3.9-3.7-6.2
		C120.3,57.7,120.6,57.6,121.3,57.8z"/>
	<path class="st47" d="M121.3,57.8c-0.2,0.2-0.5,0.5-0.7,0.7c-1-1.8-2.2-3.6-2.8-5.5c-0.6-1.8,0.7-0.8,1.3-0.6
		C119.5,54.4,121.6,55.7,121.3,57.8z"/>
	<path class="st4" d="M182.9,87.1c0,3,0,6-0.1,8.9C182.2,93,182,90.1,182.9,87.1z"/>
	<path class="st48" d="M713.8,102.9c0-13.1,0-13.1,15.1-11.8c8.5,0.8,12.8,8.5,9.5,17c-1.5,3.8-3.9,5.9-7.7,6.2
		c-2.1,0.2-4.1,0.2-6.2,0.2C713.8,114.7,713.8,114.7,713.8,102.9z"/>
	<path class="st49" d="M760.6,118.3c0-7.2,0.2-14.4,0-21.4c-0.2-3.8,1.2-4.7,4.5-4.7c16.3-0.3,21.4,5.1,21.7,23.1
		c0.2,5.4-0.2,10.6-1.2,15.9c-2,10.1-6.2,13.7-15.7,13.9c-9.2,0-9.2,0-9.2-10C760.6,129.2,760.6,123.8,760.6,118.3L760.6,118.3z"/>
	<path class="st49" d="M694.1,118.6c0.5,5.7-0.2,11.5-2.4,16.7c-2.6,6.1-6.2,10.6-13.1,10.8c-6.6,0-10.6-4.3-12.8-10.1
		c-4.8-11.8-4.4-23.9,0-35.7c2.1-5.7,6.3-9.5,12.7-9.5c6.3-0.2,10.3,3.6,12.8,9.3C693.6,105.8,694.5,112,694.1,118.6z"/>
	<path class="st49" d="M530.5,118.9c0.5-8.5,0.8-14.4,3.6-19.8c2.7-5.4,6.8-8.5,12.7-8.5c5.9,0,10,3.3,11.9,8.5
		c5,12.4,5.3,25.4,0.2,38c-2.1,5.2-6,8.7-11.9,8.8c-6,0.2-10-3.1-12.7-8.3C530.8,131,530.6,123.7,530.5,118.9z"/>
	<path class="st49" d="M360.4,128.6c-0.2-5.2,0.2-10,2-14.2c1.5-3.4,3.5-6.2,7.5-6.4c3.9-0.2,6.3,2.3,7.8,5.9
		c3.8,9.5,3.8,19,0.6,28.6c-1.2,3.4-3.3,6.4-7.5,6.4c-4.4,0.2-6.5-2.8-8.1-6.4C360.5,137.9,359.9,133.2,360.4,128.6z"/>
	<path class="st50" d="M331.7,123.7c-0.6,0-1.2,0.2-1.7,0c-2.7-0.7-7.2,2-7.8-1.8c-0.9-4.7,1.2-9.7,5.3-12.6c3.2-2.3,6.9-2.3,10,0.3
		c3.3,2.8,4.5,6.9,4.8,11.3c0.2,3.4-2,2.8-3.8,2.8C336.2,123.8,333.9,123.7,331.7,123.7z"/>
	<path class="st49" d="M456.3,126.6c0,6.4-0.6,11.3-2.6,15.7c-1.7,3.9-4.2,6.5-8.8,6.4c-4.4-0.2-7.1-2.9-8.5-6.9
		c-3.2-9-3.2-18.3,0-27.3c1.4-3.9,4.1-6.7,8.6-6.7c4.2,0,6.6,2.5,8.3,6.1C455.7,118.4,456.3,123.2,456.3,126.6z"/>
	<path class="st51" d="M131.1,177.1c2.9,0,5.7-0.1,8.6-0.1c0.6,0,1.4-0.1,1.6,0.7c0.2,0.7-0.4,1.1-0.9,1.4c-2.8,2-5.6,4-8.5,6.1
		c-5.8,4.3-11.5,8.6-17.3,13c-0.4,0.3-0.5,1-0.8,1.6c-2-1-3.6-2.4-5.1-4c1.5-3.1,4.4-4.9,6.9-6.8c4.6-3.5,9.5-6.6,14.2-9.8
		C130.6,178.6,131.1,178.1,131.1,177.1z"/>
</g>
</svg>
